<svg width="450" height="294" viewBox="0 0 450 294" fill="none" xmlns="http://www.w3.org/2000/svg">
<path d="M57 28.3191H69.377V49.696H48V37.3191C48 32.3485 52.0294 28.3191 57 28.3191Z" stroke="black" stroke-width="3"/>
<path d="M312.618 9.3428L263.378 66.8995L261.546 66.0268L310.787 8.47012L312.618 9.3428Z" fill="black"/>
<path d="M214.618 227.343L165.378 284.899L163.546 284.027L212.787 226.47L214.618 227.343Z" fill="black"/>
<mask id="path-4-inside-1_9_392" fill="white">
<path d="M341.299 48.3111H450V51.8176H341.299V48.3111Z"/>
</mask>
<path d="M341.299 48.3111V50.3111H450V48.3111V46.3111H341.299V48.3111Z" fill="black" mask="url(#path-4-inside-1_9_392)"/>
<mask id="path-6-inside-2_9_392" fill="white">
<path d="M108.702 254.159L0.000396729 254.159V250.653L108.702 250.653V254.159Z"/>
</mask>
<path d="M108.702 254.159V252.159L0.000396729 252.159V254.159V256.159L108.702 256.159V254.159Z" fill="black" mask="url(#path-6-inside-2_9_392)"/>
<mask id="path-8-inside-3_9_392" fill="white">
<path d="M421.948 28.441H425.455V133.636H421.948V28.441Z"/>
</mask>
<path d="M421.948 133.636H423.948V28.441H421.948H419.948V133.636H421.948Z" fill="black" mask="url(#path-8-inside-3_9_392)"/>
<mask id="path-10-inside-4_9_392" fill="white">
<path d="M28.2065 272.727H24.7001L24.7001 167.532H28.2065L28.2065 272.727Z"/>
</mask>
<path d="M28.2065 167.532H26.2065L26.2065 272.727H28.2065H30.2065L30.2065 167.532H28.2065Z" fill="black" mask="url(#path-10-inside-4_9_392)"/>
<mask id="path-12-inside-5_9_392" fill="white">
<path d="M2.47949 206.103L70.2515 273.875L67.7721 276.355L2.74835e-05 208.583L2.47949 206.103Z"/>
</mask>
<path d="M2.47949 206.103L1.06528 207.517L68.8373 275.29L70.2515 273.875L71.6657 272.461L3.89371 204.689L2.47949 206.103Z" fill="black" mask="url(#path-12-inside-5_9_392)"/>
<path d="M377.533 239.831C383.436 239.831 388.221 244.616 388.221 250.519C388.221 256.422 383.436 261.207 377.533 261.208C371.63 261.208 366.844 256.422 366.844 250.519C366.844 244.616 371.63 239.831 377.533 239.831Z" stroke="black" stroke-width="3"/>
</svg>
