<svg width="158" height="73" viewBox="0 0 158 73" fill="none" xmlns="http://www.w3.org/2000/svg">
<path d="M55.3901 33.1531C52.0405 33.1531 49.3251 30.4377 49.3251 27.0881C49.3251 23.7385 52.0405 21.0231 55.3901 21.0231C58.7397 21.0231 61.4551 23.7385 61.4551 27.0881C61.4551 30.4377 58.7397 33.1531 55.3901 33.1531Z" stroke="black" stroke-width="2" stroke-linecap="round" stroke-linejoin="round"/>
<path d="M50.376 35.4427C48.1441 35.4428 46.0114 36.356 44.4453 37.9681C42.8806 39.579 42.0079 41.7561 42.0078 44.0179V48.1273H42V50.9769H58.0996V48.1273H44.6738V44.0179C44.6739 42.4386 45.2838 40.9309 46.3574 39.8256C47.4299 38.7216 48.8765 38.1088 50.376 38.1088H60.9287C62.4283 38.1088 63.8747 38.7215 64.9473 39.8256L65.876 40.7816L67.7881 38.9242L66.8594 37.9681C65.2932 36.3559 63.1607 35.4428 60.9287 35.4427H50.376Z" fill="black"/>
<path d="M78.4751 34.356C84.0071 34.356 88.4917 29.8714 88.4917 24.3394C88.4917 18.8074 84.0071 14.3228 78.4751 14.3228C72.9431 14.3228 68.4585 18.8074 68.4585 24.3394C68.4585 29.8714 72.9431 34.356 78.4751 34.356Z" stroke="black" stroke-width="3" stroke-linecap="round" stroke-linejoin="round"/>
<path d="M86.4336 38.6752C89.6833 38.6752 92.8014 39.9624 95.1006 42.2543C97.3997 44.5463 98.6923 47.6558 98.6924 50.8989V57.6772H96.0264V57.5932H60.4541V57.6772H57.7881V50.8989C57.7882 47.6558 59.0809 44.5463 61.3799 42.2543C63.6789 39.9625 66.7964 38.6754 70.0459 38.6752H86.4336ZM70.0459 41.3412C67.5008 41.3414 65.0601 42.3493 63.2617 44.142C61.4636 45.9347 60.4542 48.3656 60.4541 50.8989V54.7729H96.0264V50.8989C96.0263 48.3654 95.0161 45.9347 93.2178 44.142C91.4192 42.3493 88.9788 41.3412 86.4336 41.3412H70.0459Z" fill="black"/>
<path d="M95.1006 42.2543L95.383 41.9711L95.383 41.971L95.1006 42.2543ZM98.6924 50.8989H99.0924V50.8989L98.6924 50.8989ZM98.6924 57.6772V58.0772H99.0924V57.6772H98.6924ZM96.0264 57.6772H95.6264V58.0772H96.0264V57.6772ZM96.0264 57.5932H96.4264V57.1932H96.0264V57.5932ZM60.4541 57.5932V57.1932H60.0541V57.5932H60.4541ZM60.4541 57.6772V58.0772H60.8541V57.6772H60.4541ZM57.7881 57.6772H57.3881V58.0772H57.7881V57.6772ZM57.7881 50.8989L57.3881 50.8989V50.8989H57.7881ZM61.3799 42.2543L61.0975 41.971L61.0975 41.9711L61.3799 42.2543ZM70.0459 38.6752V38.2752H70.0459L70.0459 38.6752ZM70.0459 41.3412V40.9412H70.0459L70.0459 41.3412ZM63.2617 44.142L62.9793 43.8587L62.9793 43.8588L63.2617 44.142ZM60.4541 50.8989L60.0541 50.8989V50.8989H60.4541ZM60.4541 54.7729H60.0541V55.1729H60.4541V54.7729ZM96.0264 54.7729V55.1729H96.4264V54.7729H96.0264ZM96.0264 50.8989H96.4264V50.8989L96.0264 50.8989ZM93.2178 44.142L93.5002 43.8587L93.5002 43.8587L93.2178 44.142ZM86.4336 38.6752V39.0752C89.5776 39.0752 92.5941 40.3205 94.8182 42.5376L95.1006 42.2543L95.383 41.971C93.0087 39.6042 89.789 38.2752 86.4336 38.2752V38.6752ZM95.1006 42.2543L94.8182 42.5376C97.0421 44.7547 98.2923 47.7623 98.2924 50.8989L98.6924 50.8989L99.0924 50.8989C99.0923 47.5492 97.7572 44.338 95.383 41.9711L95.1006 42.2543ZM98.6924 50.8989H98.2924V57.6772H98.6924H99.0924V50.8989H98.6924ZM98.6924 57.6772V57.2772H96.0264V57.6772V58.0772H98.6924V57.6772ZM96.0264 57.6772H96.4264V57.5932H96.0264H95.6264V57.6772H96.0264ZM96.0264 57.5932V57.1932H60.4541V57.5932V57.9932H96.0264V57.5932ZM60.4541 57.5932H60.0541V57.6772H60.4541H60.8541V57.5932H60.4541ZM60.4541 57.6772V57.2772H57.7881V57.6772V58.0772H60.4541V57.6772ZM57.7881 57.6772H58.1881V50.8989H57.7881H57.3881V57.6772H57.7881ZM57.7881 50.8989L58.1881 50.8989C58.1882 47.7624 59.4384 44.7547 61.6623 42.5376L61.3799 42.2543L61.0975 41.9711C58.7234 44.338 57.3882 47.5493 57.3881 50.8989L57.7881 50.8989ZM61.3799 42.2543L61.6623 42.5376C63.8862 40.3207 66.9021 39.0754 70.0459 39.0752L70.0459 38.6752L70.0459 38.2752C66.6907 38.2754 63.4716 39.6044 61.0975 41.971L61.3799 42.2543ZM70.0459 38.6752V39.0752H86.4336V38.6752V38.2752H70.0459V38.6752ZM70.0459 41.3412L70.0459 40.9412C67.3951 40.9414 64.8529 41.9911 62.9793 43.8587L63.2617 44.142L63.5441 44.4253C65.2674 42.7074 67.6064 41.7414 70.0459 41.7412L70.0459 41.3412ZM63.2617 44.142L62.9793 43.8588C61.1061 45.7264 60.0542 48.2591 60.0541 50.8989L60.4541 50.8989L60.8541 50.8989C60.8542 48.4721 61.8212 46.143 63.5441 44.4253L63.2617 44.142ZM60.4541 50.8989H60.0541V54.7729H60.4541H60.8541V50.8989H60.4541ZM60.4541 54.7729V55.1729H96.0264V54.7729V54.3729H60.4541V54.7729ZM96.0264 54.7729H96.4264V50.8989H96.0264H95.6264V54.7729H96.0264ZM96.0264 50.8989L96.4264 50.8989C96.4263 48.2589 95.3736 45.7263 93.5002 43.8587L93.2178 44.142L92.9354 44.4253C94.6586 46.1432 95.6263 48.472 95.6264 50.8989L96.0264 50.8989ZM93.2178 44.142L93.5002 43.8587C91.6265 41.9911 89.0845 40.9412 86.4336 40.9412V41.3412V41.7412C88.8731 41.7412 91.212 42.7074 92.9354 44.4253L93.2178 44.142ZM86.4336 41.3412V40.9412H70.0459V41.3412V41.7412H86.4336V41.3412Z" fill="black"/>
<path d="M101.09 33.1531C104.44 33.1531 107.155 30.4377 107.155 27.0881C107.155 23.7385 104.44 21.0231 101.09 21.0231C97.7408 21.0231 95.0254 23.7385 95.0254 27.0881C95.0254 30.4377 97.7408 33.1531 101.09 33.1531Z" stroke="black" stroke-width="2" stroke-linecap="round" stroke-linejoin="round"/>
<path d="M106.104 35.4427C108.336 35.4428 110.469 36.356 112.035 37.9681C113.6 39.579 114.473 41.7561 114.473 44.0179V48.1273H114.48V50.9769H98.3809V48.1273H111.807V44.0179C111.807 42.4386 111.197 40.9309 110.123 39.8256C109.051 38.7216 107.604 38.1088 106.104 38.1088H95.5518C94.0522 38.1088 92.6057 38.7215 91.5332 39.8256L90.6045 40.7816L88.6924 38.9242L89.6211 37.9681C91.1872 36.3559 93.3197 35.4428 95.5518 35.4427H106.104Z" fill="black"/>
</svg>
