<svg width="158" height="73" viewBox="0 0 158 73" fill="none" xmlns="http://www.w3.org/2000/svg">
<rect width="56" height="56" transform="translate(45 8)" fill="white"/>
<path d="M73.3632 29.458C73.3632 29.0546 73.5234 28.6677 73.8087 28.3824C74.094 28.0972 74.4809 27.9369 74.8843 27.9369H82.9971C83.2977 27.9372 83.5916 28.0265 83.8415 28.1937C84.0914 28.3608 84.2861 28.5983 84.4011 28.8761C84.5162 29.1539 84.5463 29.4595 84.4877 29.7544C84.4291 30.0493 84.2845 30.3202 84.072 30.533L80.2387 34.3703C80.8715 34.5245 81.4637 34.7354 81.9972 35.0173C83.5021 35.8103 84.5202 37.1733 84.5202 39.0838C84.5202 40.4082 84.0517 41.5339 83.2445 42.3837C82.4616 43.2112 81.4313 43.7081 80.3888 43.9596C78.3403 44.4524 75.8761 44.0874 74.0527 42.8907C73.7409 42.659 73.5295 42.317 73.4615 41.9345C73.3936 41.552 73.4744 41.158 73.6874 40.8331C73.9003 40.5083 74.2294 40.277 74.6072 40.1867C74.985 40.0964 75.3831 40.1539 75.7199 40.3474C76.803 41.0572 78.3971 41.3087 79.6769 41.0005C80.2975 40.8524 80.7518 40.5928 81.0358 40.2926C81.2974 40.0168 81.4779 39.6436 81.4779 39.0838C81.4779 38.4591 81.2285 38.0515 80.5774 37.7087C79.8209 37.3092 78.5898 37.0637 76.9145 37.0637C76.6139 37.0635 76.32 36.9741 76.0701 36.807C75.8202 36.6398 75.6254 36.4023 75.5104 36.1245C75.3954 35.8468 75.3653 35.5411 75.4239 35.2462C75.4824 34.9513 75.6271 34.6804 75.8396 34.4677L79.3281 30.9792H74.8843C74.4809 30.9792 74.094 30.8189 73.8087 30.5336C73.5234 30.2484 73.3632 29.8615 73.3632 29.458ZM66.088 41.1465C65.3782 41.0451 64.5263 41.3757 64.0943 42.3066C64.0129 42.4919 63.8952 42.6591 63.7483 42.7984C63.6014 42.9376 63.4282 43.0462 63.2388 43.1176C63.0494 43.1891 62.8477 43.222 62.6454 43.2145C62.4431 43.207 62.2443 43.1592 62.0608 43.0739C61.8772 42.9886 61.7125 42.8675 61.5763 42.7177C61.4401 42.568 61.3352 42.3925 61.2677 42.2017C61.2002 42.0108 61.1715 41.8084 61.1832 41.6064C61.1949 41.4043 61.2469 41.2066 61.336 41.0248C62.3663 38.806 64.5588 37.8507 66.5241 38.1346C68.5523 38.4287 70.3209 40.0513 70.3209 42.6413C70.3209 45.5477 68.1142 47.0871 66.6904 48.0788C66.0657 48.5169 65.5323 48.884 65.1246 49.241H69.3068C69.7102 49.241 70.0971 49.4013 70.3824 49.6865C70.6677 49.9718 70.8279 50.3587 70.8279 50.7621C70.8279 51.1656 70.6677 51.5525 70.3824 51.8377C70.0971 52.123 69.7102 52.2833 69.3068 52.2833H62.7152C62.3117 52.2833 61.9248 52.123 61.6395 51.8377C61.3543 51.5525 61.194 51.1656 61.194 50.7621C61.194 49.3627 61.8025 48.306 62.5529 47.4967C63.2587 46.7423 64.1755 46.1257 64.8853 45.6308C66.5079 44.495 67.2786 43.7973 67.2786 42.6413C67.2786 41.6819 66.7371 41.2418 66.088 41.1465ZM66.4754 20.0047C66.7181 20.1346 66.9209 20.3278 67.0623 20.5639C67.2038 20.8 67.2785 21.0701 67.2786 21.3453V31.0197H68.7206C69.1241 31.0197 69.511 31.18 69.7962 31.4653C70.0815 31.7505 70.2418 32.1375 70.2418 32.5409C70.2418 32.9443 70.0815 33.3312 69.7962 33.6165C69.511 33.9018 69.1241 34.062 68.7206 34.062H62.7334C62.33 34.062 61.9431 33.9018 61.6578 33.6165C61.3725 33.3312 61.2123 32.9443 61.2123 32.5409C61.2123 32.1375 61.3725 31.7505 61.6578 31.4653C61.9431 31.18 62.33 31.0197 62.7334 31.0197H64.2363V24.1847L63.5589 24.637C63.2232 24.8555 62.8149 24.9328 62.4226 24.8521C62.0302 24.7714 61.6856 24.5392 61.4634 24.2059C61.2412 23.8727 61.1595 23.4652 61.2359 23.0721C61.3122 22.6789 61.5406 22.3317 61.8714 22.1059L64.9137 20.0777C65.1429 19.925 65.4092 19.8374 65.6842 19.8241C65.9592 19.8109 66.2327 19.8726 66.4754 20.0026V20.0047Z" fill="#0F172B"/>
<path d="M73 64C76.6777 64.0045 80.32 63.2823 83.7177 61.8749C87.1154 60.4675 90.2015 58.4026 92.7988 55.7988C95.4026 53.2015 97.4675 50.1154 98.8749 46.7177C100.282 43.32 101.005 39.6777 101 36C101.005 32.3223 100.282 28.68 98.8749 25.2823C97.4675 21.8846 95.4026 18.7985 92.7988 16.2012C90.2015 13.5974 87.1154 11.5325 83.7177 10.1251C80.32 8.71768 76.6777 7.99549 73 8.00002C69.3223 7.99549 65.68 8.71768 62.2823 10.1251C58.8846 11.5325 55.7985 13.5974 53.2012 16.2012C50.5974 18.7985 48.5325 21.8846 47.1251 25.2823C45.7177 28.68 44.9955 32.3223 45 36C44.9955 39.6777 45.7177 43.32 47.1251 46.7177C48.5325 50.1154 50.5974 53.2015 53.2012 55.7988C55.7985 58.4026 58.8846 60.4675 62.2823 61.8749C65.68 63.2823 69.3223 64.0045 73 64Z" stroke="#0F172B" stroke-width="3" stroke-linejoin="round"/>
<rect x="80" y="36" width="32" height="32" rx="16" fill="white"/>
<path d="M95.9998 65.3333C97.7511 65.3355 99.4855 64.9916 101.104 64.3214C102.721 63.6512 104.191 62.6679 105.428 61.428C106.668 60.1912 107.651 58.7216 108.321 57.1037C108.991 55.4857 109.335 53.7513 109.333 52C109.335 50.2487 108.991 48.5143 108.321 46.8964C107.651 45.2784 106.668 43.8088 105.428 42.572C104.191 41.3321 102.721 40.3488 101.104 39.6786C99.4855 39.0084 97.7511 38.6645 95.9998 38.6667C94.2486 38.6645 92.5141 39.0084 90.8962 39.6786C89.2782 40.3488 87.8086 41.3321 86.5718 42.572C85.332 43.8088 84.3487 45.2784 83.6785 46.8964C83.0083 48.5143 82.6644 50.2487 82.6665 52C82.6644 53.7513 83.0083 55.4857 83.6785 57.1037C84.3487 58.7216 85.332 60.1912 86.5718 61.428C87.8086 62.6679 89.2782 63.6512 90.8962 64.3214C92.5141 64.9916 94.2486 65.3355 95.9998 65.3333Z" stroke="#0F172B" stroke-width="2" stroke-linejoin="round"/>
<path d="M96 54.584C96.3306 54.5832 96.6161 54.7094 96.8506 54.9561C97.0848 55.2026 97.2024 55.5002 97.2012 55.8428C97.1999 56.1848 97.0824 56.4818 96.8506 56.7285C96.618 56.9761 96.3327 57.1002 96 57.0986V57.0996C95.669 57.0996 95.3839 56.975 95.1504 56.7295C94.9169 56.484 94.7992 56.1856 94.7988 55.8418C94.7985 55.4979 94.9162 55.2002 95.1504 54.9551C95.3845 54.7102 95.6698 54.5848 96 54.584ZM96 45.9004C96.9836 45.9004 97.7548 46.189 98.2969 46.7793C98.8327 47.3629 99.0999 48.0651 99.0996 48.8799C99.0996 49.376 98.9985 49.8071 98.791 50.168C98.5882 50.5207 98.2721 50.9156 97.8467 51.3525V51.3535C97.3968 51.8074 97.1377 52.1396 97.0498 52.3555C96.9616 52.5726 96.9125 52.9584 96.9121 53.5264V53.626H95.1289V53.5264C95.1289 52.7432 95.1955 52.1646 95.3359 51.8037C95.4769 51.4417 95.7714 51.0557 96.207 50.6455V50.6445C96.5811 50.299 96.864 50.0022 97.0566 49.7529C97.2402 49.5154 97.3314 49.245 97.3311 48.9385C97.3311 48.5663 97.2137 48.2635 96.9814 48.0234C96.7525 47.7869 96.4298 47.6631 96 47.6631C95.5551 47.6631 95.2316 47.8045 95.0117 48.0752C94.7751 48.3666 94.6095 48.6598 94.5127 48.9551L94.4775 49.0605L94.376 49.0146L92.959 48.3779L92.8779 48.3418L92.9043 48.2568C93.1027 47.6209 93.4667 47.0703 93.9932 46.6055C94.5277 46.1336 95.1994 45.9004 96 45.9004Z" fill="#0F172B" stroke="#0F172B" stroke-width="0.2"/>
</svg>
