<svg width="158" height="73" viewBox="0 0 158 73" fill="none" xmlns="http://www.w3.org/2000/svg">
<path d="M55 19.5C64.1127 19.5 71.5 26.8873 71.5 36C71.5 45.1127 64.1127 52.5 55 52.5C45.8873 52.5 38.5 45.1127 38.5 36C38.5 26.8873 45.8873 19.5 55 19.5Z" stroke="#0F172B" stroke-width="5"/>
<path d="M49.1675 36H60.8326" stroke="#0F172B" stroke-width="4" stroke-linecap="round" stroke-linejoin="round"/>
<path d="M55 30.1674V41.8326" stroke="#0F172B" stroke-width="4" stroke-linecap="round" stroke-linejoin="round"/>
<path d="M102.5 19.5H103.5C112.337 19.5 119.5 26.6634 119.5 35.5C119.5 44.3366 112.337 51.5 103.5 51.5H102.5C93.6634 51.5 86.5 44.3366 86.5 35.5C86.5 26.6634 93.6634 19.5 102.5 19.5Z" stroke="#0F172B" stroke-width="5"/>
<path d="M97.1665 35.5H108.833" stroke="#0F172B" stroke-width="4" stroke-linecap="round" stroke-linejoin="round"/>
</svg>
