<svg width="122" height="121" viewBox="0 0 122 121" fill="none" xmlns="http://www.w3.org/2000/svg">
<path d="M28.9366 90.1959L86.777 90.5946" stroke="black" stroke-width="2"/>
<path d="M86.5116 90.7467L105.803 70.8792" stroke="black" stroke-width="2"/>
<path d="M28.9372 90.1959L66.9279 19.1484" stroke="black" stroke-width="2"/>
<path d="M86.0264 90.3587L67.1602 18.9193" stroke="black" stroke-width="2"/>
<path d="M105.567 71.5699L67.1582 19.15" stroke="black" stroke-width="2"/>
<path d="M28.9364 90.1959L48.2276 70.3284" stroke="black" stroke-dasharray="6.4 6.4"/>
<path d="M105.569 71.3391L48.2286 70.3284" stroke="black" stroke-dasharray="6.4 6.4"/>
<path d="M48.2282 70.3284L66.6773 21.9544" stroke="black" stroke-dasharray="6.4 6.4"/>
<path d="M28.9371 90.1959L105.801 71.1099" stroke="black" stroke-dasharray="4.27 4.27"/>
<path d="M86.9712 91.0575L48.2286 70.3284" stroke="black" stroke-dasharray="4.27 4.27"/>
<path d="M66.6739 22.4544L67.274 80.46" stroke="black" stroke-dasharray="8.53 8.53"/>
<path d="M64.8027 76.4428L64.781 79.6089L61.4907 79.8073" stroke="black"/>
<path d="M15.4688 18.5629L14.982 89.1766" stroke="black" stroke-width="2"/>
<path d="M15.4761 16.2552L12.6836 20.9238L18.204 20.9618L15.4761 16.2552Z" fill="black"/>
<path d="M14.9565 91.5565L12.2286 86.8499L17.749 86.8879L14.9565 91.5565Z" fill="black"/>
<path d="M5.17363 66.8249L4.54864 66.8206L4.57872 62.457L5.20371 62.4613L5.1911 64.2908L10.3842 64.3266L10.3793 65.0312L5.18624 64.9954L5.17363 66.8249ZM10.4036 61.5007L6.0401 61.4706L6.04472 60.8002L10.4083 60.8303L10.4036 61.5007ZM5.3152 61.1247C5.3143 61.2554 5.26901 61.3678 5.17935 61.4618C5.08969 61.554 4.98237 61.5997 4.85737 61.5988C4.73238 61.598 4.62569 61.5508 4.53732 61.4574C4.44896 61.3621 4.40523 61.2491 4.40613 61.1184C4.40703 60.9878 4.45231 60.8763 4.54196 60.7841C4.63162 60.6901 4.73896 60.6435 4.86395 60.6443C4.98895 60.6452 5.09563 60.6933 5.18399 60.7886C5.27236 60.882 5.3161 60.994 5.3152 61.1247ZM7.79641 58.9138L10.4213 58.9319L10.4167 59.6023L6.05319 59.5722L6.05765 58.9245L6.73946 58.9292L6.73985 58.8724C6.51897 58.7686 6.34201 58.6121 6.20898 58.4028C6.07406 58.1936 6.00773 57.9242 6.01 57.5946C6.01204 57.2992 6.07443 57.0411 6.19716 56.8203C6.31801 56.5996 6.50101 56.4285 6.74617 56.307C6.98944 56.1856 7.29667 56.1262 7.66787 56.1287L10.4405 56.1478L10.4359 56.8183L7.70871 56.7995C7.36591 56.7971 7.09826 56.8843 6.90575 57.061C6.71134 57.2377 6.61307 57.4813 6.61093 57.7919C6.60945 58.006 6.65454 58.1976 6.74617 58.3668C6.83783 58.5341 6.97233 58.6666 7.14969 58.7644C7.32705 58.8622 7.54262 58.912 7.79641 58.9138ZM12.1884 53.1733C12.1861 53.4972 12.1425 53.7753 12.0576 54.0077C11.9746 54.2401 11.8653 54.4334 11.7297 54.5878C11.5961 54.7403 11.4532 54.8615 11.3011 54.9513L10.9298 54.4147C11.0097 54.3546 11.1012 54.2785 11.2041 54.1864C11.3089 54.0944 11.3997 53.9681 11.4766 53.8076C11.5554 53.6453 11.5956 53.4325 11.5975 53.1692C11.5999 52.817 11.5167 52.5257 11.3478 52.2953C11.1789 52.065 10.9127 51.9486 10.549 51.9461L9.6627 51.94L9.66231 51.9968C9.74152 52.0466 9.83952 52.1173 9.95631 52.209C10.0712 52.2989 10.1736 52.4284 10.2633 52.5975C10.3512 52.7648 10.3941 52.9905 10.3922 53.2746C10.3897 53.6268 10.3042 53.9425 10.1356 54.2217C9.96704 54.4989 9.7231 54.7179 9.40381 54.8786C9.08452 55.0374 8.69761 55.1152 8.24308 55.1121C7.79612 55.109 7.40746 55.0277 7.07712 54.8682C6.74487 54.7088 6.48881 54.4882 6.30893 54.2067C6.12716 53.9251 6.03753 53.6006 6.04007 53.2332C6.04203 52.9491 6.09093 52.7241 6.18677 52.5581C6.28073 52.3902 6.38768 52.2621 6.50761 52.1739C6.62566 52.0838 6.72273 52.0144 6.79882 51.9657L6.79929 51.8975L6.10613 51.8927L6.11059 51.245L10.5991 51.276C10.9741 51.2785 11.2784 51.3659 11.5121 51.5379C11.7477 51.7081 11.9194 51.9366 12.0273 52.2233C12.1371 52.5082 12.1908 52.8248 12.1884 53.1733ZM9.79053 53.1795C9.79238 52.9106 9.7324 52.6829 9.61057 52.4964C9.48875 52.31 9.31264 52.1677 9.08225 52.0695C8.85186 51.9713 8.57569 51.9211 8.25373 51.9189C7.93934 51.9167 7.66156 51.9622 7.42038 52.0552C7.1792 52.1482 6.98979 52.2871 6.85215 52.4717C6.71451 52.6564 6.64475 52.8851 6.64287 53.1578C6.64092 53.4419 6.71125 53.6791 6.85388 53.8695C6.99653 54.058 7.18873 54.2004 7.4305 54.2968C7.67227 54.3913 7.94089 54.4395 8.23634 54.4416C8.53936 54.4437 8.80767 54.3982 9.04127 54.3051C9.27299 54.2101 9.45579 54.0693 9.58965 53.8827C9.72164 53.6942 9.78859 53.4598 9.79053 53.1795ZM12.222 48.2984C12.2197 48.6223 12.1761 48.9004 12.0912 49.1328C12.0082 49.3652 11.8989 49.5585 11.7633 49.7129C11.6297 49.8654 11.4868 49.9866 11.3347 50.0765L10.9634 49.5398C11.0433 49.4797 11.1348 49.4037 11.2377 49.3116C11.3425 49.2195 11.4333 49.0932 11.5102 48.9327C11.589 48.7704 11.6292 48.5576 11.6311 48.2944C11.6335 47.9421 11.5503 47.6508 11.3814 47.4205C11.2125 47.1901 10.9463 47.0737 10.5827 47.0712L9.69631 47.0651L9.69592 47.1219C9.77512 47.1717 9.87312 47.2424 9.98992 47.3342C10.1048 47.424 10.2072 47.5535 10.2969 47.7227C10.3848 47.8899 10.4277 48.1156 10.4258 48.3997C10.4233 48.752 10.3378 49.0677 10.1692 49.3468C10.0006 49.6241 9.75671 49.843 9.43741 50.0037C9.11813 50.1625 8.73122 50.2403 8.27668 50.2372C7.82972 50.2341 7.44107 50.1528 7.11072 49.9934C6.77848 49.8339 6.52242 49.6133 6.34254 49.3318C6.16076 49.0502 6.07114 48.7257 6.07367 48.3583C6.07563 48.0742 6.12453 47.8492 6.22038 47.6832C6.31434 47.5153 6.42128 47.3872 6.54121 47.299C6.65926 47.2089 6.75633 47.1395 6.83243 47.0908L6.8329 47.0226L6.13973 47.0178L6.1442 46.3701L10.6327 46.4011C11.0077 46.4037 11.312 46.491 11.5457 46.6631C11.7813 46.8332 11.953 47.0617 12.0609 47.3484C12.1707 47.6333 12.2244 47.95 12.222 48.2984ZM9.82413 48.3046C9.82599 48.0357 9.766 47.808 9.64418 47.6216C9.52235 47.4351 9.34625 47.2928 9.11586 47.1946C8.88547 47.0964 8.60929 47.0462 8.28733 47.044C7.97294 47.0418 7.69516 47.0873 7.45398 47.1803C7.21281 47.2734 7.0234 47.4122 6.88576 47.5969C6.74812 47.7815 6.67836 48.0102 6.67648 48.2829C6.67452 48.567 6.74486 48.8043 6.88749 48.9946C7.03013 49.1831 7.22234 49.3255 7.4641 49.4219C7.70588 49.5164 7.97449 49.5646 8.26994 49.5667C8.57296 49.5688 8.84128 49.5233 9.07488 49.4302C9.3066 49.3352 9.48939 49.1944 9.62326 49.0078C9.75524 48.8193 9.8222 48.5849 9.82413 48.3046ZM10.5162 45.173L6.15266 45.1429L6.15728 44.4724L10.5208 44.5025L10.5162 45.173ZM5.42775 44.797C5.42685 44.9277 5.38157 45.04 5.2919 45.1341C5.20225 45.2263 5.09492 45.272 4.96993 45.2711C4.84493 45.2702 4.73824 45.2231 4.64987 45.1297C4.56151 45.0344 4.51778 44.9214 4.51868 44.7907C4.51958 44.66 4.56486 44.5486 4.65451 44.4564C4.74418 44.3623 4.85151 44.3157 4.97651 44.3166C5.1015 44.3174 5.20818 44.3655 5.29654 44.4608C5.38492 44.5542 5.42865 44.6663 5.42775 44.797Z" fill="black"/>
<path d="M33.4375 100.15L81.3211 100.48" stroke="black" stroke-width="2"/>
<path d="M31.5223 100.137L36.3314 97.1701L36.29 103.17L31.5223 100.137Z" fill="black"/>
<path d="M83.2365 100.494L78.4688 97.4606L78.4274 103.46L83.2365 100.494Z" fill="black"/>
<path d="M42.8361 111.215L42.8762 105.397L44.8421 105.411C45.2985 105.414 45.6711 105.499 45.9597 105.666C46.2502 105.831 46.4646 106.053 46.6028 106.332C46.7411 106.611 46.809 106.922 46.8066 107.265C46.8043 107.608 46.732 107.919 46.59 108.198C46.4498 108.478 46.2342 108.7 45.9433 108.864C45.6524 109.027 45.2806 109.107 44.828 109.104L43.4189 109.094L43.4233 108.469L44.8096 108.479C45.1221 108.481 45.3734 108.429 45.5635 108.322C45.7537 108.215 45.892 108.071 45.9785 107.887C46.0669 107.702 46.1119 107.493 46.1135 107.26C46.1151 107.028 46.0729 106.819 45.9871 106.635C45.9031 106.45 45.7659 106.305 45.5753 106.2C45.3848 106.093 45.1313 106.038 44.8151 106.036L43.5765 106.027L43.5407 111.22L42.8361 111.215ZM49.1066 111.361C48.8301 111.359 48.5795 111.305 48.3548 111.199C48.1302 111.092 47.9523 110.938 47.8211 110.738C47.6899 110.537 47.6253 110.294 47.6272 110.01C47.6289 109.76 47.6796 109.557 47.7791 109.403C47.8787 109.246 48.0112 109.124 48.1766 109.036C48.3419 108.948 48.5242 108.883 48.7234 108.841C48.9244 108.797 49.1264 108.762 49.3292 108.737C49.5946 108.705 49.8097 108.681 49.9746 108.665C50.1414 108.647 50.2628 108.617 50.3389 108.574C50.4168 108.531 50.4562 108.455 50.4569 108.347L50.4571 108.325C50.459 108.044 50.3838 107.826 50.2315 107.67C50.081 107.513 49.8515 107.434 49.5428 107.432C49.2227 107.43 48.9713 107.498 48.7885 107.637C48.6057 107.776 48.4768 107.925 48.4019 108.083L47.7671 107.851C47.8826 107.587 48.0355 107.382 48.2259 107.235C48.4182 107.087 48.6273 106.984 48.853 106.927C49.0807 106.868 49.3044 106.839 49.5241 106.841C49.6643 106.842 49.8251 106.86 50.0067 106.895C50.1902 106.929 50.3668 106.997 50.5365 107.101C50.7082 107.204 50.8501 107.359 50.9623 107.567C51.0745 107.774 51.1294 108.051 51.1271 108.397L51.1072 111.272L50.4368 111.268L50.4409 110.677L50.4068 110.677C50.3607 110.771 50.2842 110.872 50.1774 110.979C50.0706 111.086 49.9289 111.177 49.7522 111.252C49.5756 111.326 49.3604 111.363 49.1066 111.361ZM49.213 110.759C49.4781 110.761 49.702 110.711 49.8845 110.608C50.0689 110.505 50.2081 110.371 50.3021 110.207C50.3979 110.043 50.4464 109.87 50.4477 109.688L50.4519 109.075C50.4233 109.108 50.3606 109.139 50.2638 109.167C50.1689 109.193 50.0589 109.216 49.9337 109.236C49.8105 109.254 49.6901 109.27 49.5726 109.284C49.457 109.297 49.3632 109.308 49.2911 109.317C49.1167 109.338 48.9536 109.374 48.8017 109.424C48.6518 109.472 48.5301 109.546 48.4366 109.646C48.345 109.744 48.2986 109.878 48.2974 110.048C48.2958 110.281 48.3808 110.458 48.5523 110.579C48.7257 110.697 48.946 110.757 49.213 110.759ZM53.0195 108.66L53.0014 111.285L52.3309 111.281L52.361 106.917L53.0087 106.922L53.004 107.603L53.0608 107.604C53.1646 107.383 53.3212 107.206 53.5304 107.073C53.7397 106.938 54.0091 106.872 54.3386 106.874C54.6341 106.876 54.8922 106.938 55.1129 107.061C55.3337 107.182 55.5048 107.365 55.6262 107.61C55.7476 107.853 55.8071 108.161 55.8045 108.532L55.7854 111.305L55.115 111.3L55.1338 108.573C55.1361 108.23 55.0489 107.962 54.8722 107.77C54.6955 107.575 54.4519 107.477 54.1413 107.475C53.9273 107.473 53.7357 107.519 53.5665 107.61C53.3992 107.702 53.2666 107.836 53.1688 108.014C53.071 108.191 53.0212 108.407 53.0195 108.66ZM57.0406 106.949L57.711 106.954L57.6788 111.636C57.6769 111.905 57.6289 112.137 57.5347 112.334C57.4425 112.53 57.3032 112.682 57.1168 112.788C56.9324 112.895 56.7 112.947 56.4197 112.945C56.397 112.945 56.3742 112.945 56.3515 112.945C56.3288 112.945 56.3061 112.945 56.2833 112.944L56.2876 112.319C56.3104 112.32 56.3312 112.32 56.3501 112.32C56.3691 112.32 56.3899 112.32 56.4126 112.32C56.6172 112.322 56.7672 112.262 56.8627 112.142C56.9583 112.023 57.0068 111.853 57.0083 111.631L57.0406 106.949ZM57.3751 106.224C57.2445 106.224 57.1321 106.178 57.038 106.089C56.9458 105.999 56.9001 105.892 56.901 105.767C56.9019 105.642 56.949 105.535 57.0424 105.447C57.1377 105.358 57.2507 105.314 57.3814 105.315C57.5121 105.316 57.6235 105.362 57.7157 105.451C57.8098 105.541 57.8564 105.648 57.8555 105.773C57.8547 105.898 57.8066 106.005 57.7113 106.093C57.6179 106.182 57.5058 106.225 57.3751 106.224ZM60.1923 111.437C59.9157 111.435 59.6652 111.381 59.4405 111.276C59.2159 111.168 59.0379 111.014 58.9067 110.815C58.7756 110.613 58.7109 110.37 58.7129 110.086C58.7146 109.836 58.7653 109.634 58.8648 109.479C58.9644 109.323 59.0969 109.2 59.2622 109.113C59.4276 109.025 59.6099 108.96 59.809 108.917C60.0101 108.873 60.2121 108.839 60.4149 108.814C60.6803 108.781 60.8954 108.757 61.0603 108.741C61.2271 108.724 61.3485 108.693 61.4246 108.65C61.5025 108.607 61.5419 108.532 61.5426 108.424L61.5428 108.401C61.5447 108.121 61.4695 107.902 61.3172 107.746C61.1667 107.59 60.9371 107.51 60.6284 107.508C60.3084 107.506 60.0569 107.574 59.8742 107.713C59.6914 107.852 59.5625 108.001 59.4876 108.16L58.8528 107.928C58.9682 107.664 59.1212 107.458 59.3116 107.312C59.5039 107.163 59.7129 107.061 59.9387 107.004C60.1664 106.944 60.3901 106.916 60.6098 106.917C60.7499 106.918 60.9108 106.936 61.0924 106.972C61.2759 107.005 61.4525 107.074 61.6222 107.177C61.7939 107.281 61.9358 107.436 62.048 107.643C62.1602 107.85 62.2151 108.127 62.2127 108.474L62.1929 111.349L61.5225 111.344L61.5265 110.753L61.4925 110.753C61.4463 110.847 61.3699 110.948 61.2631 111.055C61.1563 111.163 61.0146 111.253 60.8379 111.328C60.6613 111.403 60.446 111.439 60.1923 111.437ZM60.2987 110.836C60.5638 110.837 60.7877 110.787 60.9702 110.684C61.1546 110.581 61.2938 110.448 61.3877 110.283C61.4836 110.119 61.5321 109.946 61.5334 109.765L61.5376 109.151C61.5089 109.185 61.4462 109.216 61.3494 109.243C61.2546 109.269 61.1446 109.292 61.0194 109.312C60.8962 109.33 60.7758 109.346 60.6583 109.361C60.5427 109.373 60.4488 109.384 60.3768 109.393C60.2024 109.414 60.0393 109.45 59.8874 109.5C59.7375 109.549 59.6157 109.623 59.5222 109.722C59.4307 109.82 59.3843 109.954 59.3831 110.125C59.3815 110.358 59.4665 110.534 59.638 110.655C59.8114 110.774 60.0316 110.834 60.2987 110.836ZM64.1051 108.737L64.087 111.362L63.4166 111.357L63.4467 106.994L64.0944 106.998L64.0897 107.68L64.1465 107.68C64.2503 107.459 64.4068 107.282 64.6161 107.149C64.8254 107.014 65.0948 106.948 65.4243 106.95C65.7197 106.952 65.9778 107.015 66.1986 107.138C66.4194 107.258 66.5905 107.441 66.7119 107.687C66.8333 107.93 66.8927 108.237 66.8902 108.608L66.8711 111.381L66.2006 111.376L66.2194 108.649C66.2218 108.306 66.1346 108.039 65.9579 107.846C65.7812 107.652 65.5376 107.553 65.227 107.551C65.013 107.55 64.8214 107.595 64.6522 107.687C64.4849 107.778 64.3523 107.913 64.2545 108.09C64.1567 108.267 64.1069 108.483 64.1051 108.737ZM69.8456 113.129C69.5217 113.127 69.2436 113.083 69.0112 112.998C68.7789 112.915 68.5855 112.806 68.4311 112.67C68.2786 112.537 68.1574 112.394 68.0676 112.241L68.6042 111.87C68.6643 111.95 68.7404 112.042 68.8325 112.144C68.9246 112.249 69.0508 112.34 69.2113 112.417C69.3736 112.496 69.5864 112.536 69.8497 112.538C70.2019 112.54 70.4932 112.457 70.7236 112.288C70.9539 112.119 71.0703 111.853 71.0728 111.489L71.0789 110.603L71.0221 110.603C70.9723 110.682 70.9016 110.78 70.8099 110.897C70.7201 111.012 70.5906 111.114 70.4214 111.204C70.2541 111.292 70.0284 111.335 69.7443 111.333C69.3921 111.33 69.0764 111.245 68.7972 111.076C68.52 110.907 68.301 110.664 68.1403 110.344C67.9815 110.025 67.9037 109.638 67.9068 109.183C67.9099 108.737 67.9912 108.348 68.1507 108.018C68.3102 107.685 68.5307 107.429 68.8122 107.249C69.0938 107.068 69.4183 106.978 69.7857 106.98C70.0698 106.982 70.2948 107.031 70.4608 107.127C70.6288 107.221 70.7568 107.328 70.845 107.448C70.9351 107.566 71.0045 107.663 71.0532 107.739L71.1214 107.74L71.1262 107.047L71.7739 107.051L71.743 111.54C71.7404 111.915 71.653 112.219 71.481 112.453C71.3108 112.688 71.0823 112.86 70.7956 112.968C70.5107 113.077 70.1941 113.131 69.8456 113.129ZM69.8394 110.731C70.1083 110.733 70.336 110.673 70.5225 110.551C70.7089 110.429 70.8512 110.253 70.9494 110.023C71.0476 109.792 71.0978 109.516 71.1 109.194C71.1022 108.88 71.0568 108.602 70.9637 108.361C70.8707 108.12 70.7318 107.93 70.5472 107.793C70.3625 107.655 70.1338 107.585 69.8611 107.583C69.577 107.581 69.3398 107.652 69.1494 107.794C68.9609 107.937 68.8185 108.129 68.7221 108.371C68.6276 108.613 68.5794 108.881 68.5774 109.177C68.5753 109.48 68.6208 109.748 68.7139 109.982C68.8088 110.213 68.9496 110.396 69.1362 110.53C69.3247 110.662 69.5591 110.729 69.8394 110.731Z" fill="black"/>
<path d="M95.6161 97.187L114.907 77.3195" stroke="black" stroke-width="2"/>
<path d="M93.6863 99.1737L98.4815 98.2067L94.6784 94.1804L93.6863 99.1737Z" fill="black"/>
<path d="M116.836 75.3327L112.041 76.2997L115.844 80.326L116.836 75.3327Z" fill="black"/>
<path d="M106.551 101.668L102.556 97.4379L103.046 96.9324L106.612 100.708L108.497 98.7674L108.926 99.2218L106.551 101.668ZM110.959 97.2578C110.666 97.5595 110.35 97.7522 110.01 97.8361C109.67 97.9172 109.328 97.895 108.983 97.7695C108.638 97.6413 108.312 97.4147 108.005 97.0897C107.698 96.7648 107.484 96.42 107.364 96.0553C107.243 95.6879 107.219 95.3293 107.293 94.9797C107.366 94.6273 107.54 94.3097 107.814 94.0271C107.972 93.8641 108.155 93.7306 108.361 93.6267C108.567 93.5228 108.792 93.4676 109.036 93.461C109.279 93.4531 109.533 93.5117 109.799 93.6366C110.066 93.7615 110.339 93.972 110.618 94.268L110.813 94.4746L108.47 96.8878L108.072 96.4665L109.94 94.5424C109.771 94.3634 109.586 94.239 109.385 94.1693C109.185 94.0981 108.984 94.0865 108.782 94.1343C108.581 94.1808 108.396 94.291 108.228 94.465C108.041 94.6565 107.926 94.8705 107.881 95.1068C107.836 95.3404 107.85 95.571 107.922 95.7986C107.993 96.0261 108.112 96.2273 108.277 96.4022L108.542 96.6831C108.769 96.9227 109 97.085 109.237 97.17C109.473 97.2524 109.704 97.2635 109.928 97.2035C110.151 97.1421 110.357 97.0143 110.546 96.82C110.668 96.6936 110.762 96.5616 110.827 96.4239C110.893 96.2834 110.927 96.1394 110.931 95.9917C110.933 95.8426 110.902 95.6926 110.837 95.5417L111.414 95.2092C111.517 95.4178 111.57 95.6404 111.572 95.8771C111.573 96.1124 111.523 96.3487 111.422 96.586C111.319 96.8219 111.165 97.0459 110.959 97.2578ZM112.929 95.0985L108.934 90.8689L109.401 90.3879L110.876 91.9492L110.916 91.9085C110.898 91.8181 110.879 91.6989 110.859 91.5511C110.839 91.4005 110.855 91.2323 110.906 91.0466C110.957 90.8582 111.081 90.6621 111.279 90.4583C111.535 90.1947 111.824 90.0291 112.145 89.9616C112.467 89.894 112.798 89.9264 113.139 90.0587C113.48 90.191 113.808 90.4237 114.123 90.7569C114.44 91.0929 114.66 91.4405 114.783 91.7997C114.905 92.1576 114.933 92.5038 114.867 92.8385C114.799 93.1718 114.638 93.4689 114.385 93.7298C114.19 93.9309 114.002 94.0581 113.82 94.1116C113.638 94.1637 113.474 94.179 113.329 94.1575C113.182 94.1346 113.065 94.1119 112.976 94.0894L112.92 94.1464L113.381 94.6338L112.929 95.0985ZM111.89 93.0396C112.117 93.2791 112.35 93.4558 112.59 93.5697C112.829 93.6821 113.062 93.7234 113.289 93.6935C113.514 93.6622 113.721 93.5501 113.908 93.3572C114.103 93.1561 114.216 92.9346 114.245 92.6926C114.274 92.448 114.235 92.2001 114.128 91.9491C114.021 91.6953 113.861 91.4555 113.648 91.2297C113.437 91.0066 113.214 90.8396 112.979 90.7285C112.744 90.6148 112.511 90.5735 112.28 90.6047C112.05 90.6332 111.835 90.7494 111.637 90.9532C111.447 91.1489 111.335 91.3635 111.301 91.5972C111.265 91.8295 111.299 92.0691 111.402 92.316C111.504 92.5616 111.667 92.8028 111.89 93.0396ZM117.292 90.7521C117.1 90.9505 116.889 91.0927 116.66 91.1786C116.431 91.2632 116.201 91.2808 115.972 91.2313C115.742 91.1805 115.529 91.0518 115.334 90.8453C115.163 90.6636 115.058 90.4809 115.02 90.2974C114.98 90.1124 114.988 89.9285 115.041 89.7456C115.095 89.5627 115.176 89.384 115.285 89.2097C115.393 89.0326 115.509 88.8617 115.632 88.6971C115.793 88.4821 115.926 88.3093 116.029 88.1786C116.132 88.0453 116.195 87.9356 116.218 87.8496C116.242 87.7622 116.217 87.6793 116.143 87.6008L116.127 87.5843C115.935 87.3805 115.732 87.2772 115.518 87.2744C115.306 87.2702 115.092 87.3788 114.877 87.6003C114.654 87.8299 114.528 88.0609 114.497 88.2932C114.467 88.5256 114.48 88.7261 114.538 88.8947L113.939 89.186C113.836 88.9118 113.8 88.653 113.83 88.4097C113.861 88.1637 113.934 87.9385 114.051 87.7341C114.168 87.527 114.303 87.3447 114.456 87.187C114.553 87.0865 114.677 86.9834 114.827 86.8777C114.977 86.7693 115.147 86.6912 115.336 86.6432C115.526 86.5939 115.732 86.6035 115.953 86.6721C116.174 86.7406 116.403 86.9009 116.641 87.1529L118.615 89.2429L118.148 89.7239L117.742 89.2943L117.719 89.3188C117.752 89.4202 117.769 89.5483 117.769 89.7028C117.769 89.8574 117.734 90.0254 117.663 90.2068C117.593 90.3883 117.469 90.57 117.292 90.7521ZM116.95 90.2409C117.135 90.0507 117.254 89.8525 117.31 89.6463C117.366 89.4388 117.37 89.2418 117.322 89.0555C117.274 88.8677 117.188 88.7078 117.063 88.5756L116.642 88.1295C116.646 88.1747 116.624 88.2422 116.576 88.3322C116.528 88.4194 116.468 88.5154 116.395 88.6203C116.322 88.7223 116.25 88.821 116.179 88.9163C116.107 89.0088 116.05 89.0843 116.006 89.1428C115.901 89.2844 115.812 89.4281 115.742 89.574C115.672 89.7171 115.639 89.8584 115.643 89.998C115.647 90.1348 115.708 90.2652 115.825 90.3891C115.985 90.5584 116.166 90.6247 116.368 90.5878C116.57 90.5481 116.764 90.4325 116.95 90.2409ZM119.468 88.365L116.471 85.1927L116.922 84.728L117.375 85.2072L117.407 85.1746C117.314 84.9605 117.294 84.7299 117.347 84.4827C117.399 84.2355 117.517 84.0181 117.699 83.8306C117.733 83.7953 117.777 83.7518 117.83 83.7002C117.882 83.6485 117.923 83.6105 117.952 83.5861L118.42 84.0818C118.401 84.0939 118.358 84.1251 118.294 84.1753C118.229 84.2227 118.166 84.2784 118.104 84.3422C117.956 84.4944 117.855 84.6626 117.8 84.8469C117.745 85.0285 117.737 85.2103 117.777 85.3925C117.816 85.572 117.903 85.7333 118.039 85.8765L119.935 87.884L119.468 88.365Z" fill="black"/>
</svg>
