<svg width="158" height="73" viewBox="0 0 158 73" fill="none" xmlns="http://www.w3.org/2000/svg">
<path d="M53.415 56.7527L98.415 56.7549" stroke="black" stroke-width="2"/>
<path d="M98.3046 56.6697L109.236 45.111" stroke="black" stroke-width="2"/>
<path d="M53.4157 56.7527L80.4149 5.75269" stroke="black" stroke-width="1.7"/>
<path d="M98.415 56.7527L80.415 5.75269" stroke="black" stroke-width="2"/>
<path d="M109.415 45.7527L80.415 5.75269" stroke="black" stroke-width="2"/>
<path d="M53.4146 56.7527L69.4153 44.7527" stroke="black" stroke-width="0.9" stroke-dasharray="6.4 6.4"/>
<path d="M109.415 45.7527L69.415 44.7527" stroke="black" stroke-width="0.9" stroke-dasharray="6.4 6.4"/>
<path d="M69.4154 44.7527L79.4156 7.75266" stroke="black" stroke-width="0.9" stroke-dasharray="6.4 6.4"/>
<path d="M54.4149 54.7527L108.414 45.7527" stroke="black" stroke-width="0.9" stroke-dasharray="4.27 4.27"/>
<path d="M98.415 56.7527L69.415 44.7527" stroke="black" stroke-width="0.9" stroke-dasharray="4.27 4.27"/>
<path d="M79.7676 7.88019L80.103 50.1528" stroke="black" stroke-width="0.9" stroke-dasharray="8.53 8.53"/>
<path d="M78.5166 47.7527L78.5039 49.5996L76.5297 49.715" stroke="black" stroke-width="0.9"/>
<path d="M48.0293 12.5828L47.7454 53.7741" stroke="black" stroke-width="1.3"/>
<path d="M48.0331 11.2366L46.3581 13.9596L49.6704 13.9824L48.0331 11.2366Z" fill="black"/>
<path d="M47.7301 55.1623L46.0928 52.4165L49.405 52.4393L47.7301 55.1623Z" fill="black"/>
<path d="M41.3383 38.5852L41.007 38.5829L41.019 36.8422L41.3503 36.8445L41.3456 37.5188L43.1961 37.5316L43.1934 37.9236L41.3429 37.9109L41.3383 38.5852ZM43.2029 36.5387L41.5666 36.5274L41.5693 36.1418L43.2056 36.1531L43.2029 36.5387ZM41.3357 36.3319C41.3353 36.393 41.3147 36.4454 41.2739 36.4892C41.2324 36.5329 41.1829 36.5546 41.1254 36.5542C41.0671 36.5538 41.0179 36.5315 40.9777 36.4872C40.9369 36.4428 40.9166 36.3901 40.917 36.3291C40.9175 36.2673 40.9384 36.2149 40.9799 36.1718C41.0207 36.1281 41.0702 36.1064 41.1285 36.1068C41.186 36.1072 41.2352 36.1295 41.2761 36.1739C41.3163 36.2175 41.3361 36.2702 41.3357 36.3319ZM42.2522 35.3643L43.211 35.3709L43.2083 35.7565L41.572 35.7452L41.5745 35.3766L41.8526 35.3785L41.8527 35.3594C41.7614 35.3211 41.689 35.2606 41.6356 35.1778C41.5822 35.0944 41.5559 34.9915 41.5567 34.8694C41.5575 34.7565 41.5823 34.6583 41.6312 34.5748C41.6801 34.4906 41.7505 34.4258 41.8424 34.3802C41.9344 34.334 42.0457 34.3117 42.1764 34.3133L43.2182 34.3205L43.2156 34.7061L42.2334 34.6993C42.124 34.6986 42.0382 34.7264 41.976 34.7828C41.9138 34.8385 41.8824 34.916 41.8817 35.0155C41.8813 35.0829 41.8958 35.143 41.9252 35.1958C41.954 35.2478 41.996 35.289 42.0512 35.3192C42.1064 35.3487 42.1734 35.3637 42.2522 35.3643ZM43.8736 33.2213C43.8726 33.3598 43.853 33.4786 43.8146 33.5778C43.777 33.6769 43.7267 33.7565 43.6638 33.8164C43.6009 33.8764 43.5314 33.9178 43.4552 33.9407L43.3735 33.5928C43.4055 33.5774 43.4373 33.5549 43.4687 33.5253C43.5009 33.4957 43.5275 33.4557 43.5484 33.4055C43.5701 33.3545 43.5812 33.2903 43.5817 33.2129C43.5825 33.1035 43.5564 33.0127 43.5037 32.9407C43.4516 32.8686 43.3652 32.8321 43.2445 32.8313L42.9345 32.8291L42.9343 32.8483C42.974 32.8685 43.0146 32.8979 43.0562 32.9365C43.0979 32.9744 43.1327 33.0247 43.1607 33.0874C43.1887 33.1494 43.2023 33.2273 43.2017 33.321C43.2008 33.4467 43.1706 33.5605 43.1109 33.6624C43.0505 33.7635 42.9612 33.8439 42.8429 33.9034C42.7239 33.9623 42.5752 33.9911 42.397 33.9899C42.2173 33.9886 42.0659 33.9578 41.9427 33.8972C41.8188 33.836 41.7253 33.7541 41.6621 33.6513C41.5982 33.5486 41.5666 33.4344 41.5675 33.3087C41.5682 33.2128 41.585 33.1341 41.6181 33.0725C41.6505 33.0103 41.6896 32.9608 41.7353 32.9242C41.7803 32.8876 41.8227 32.8598 41.8626 32.8409L41.8628 32.8196L41.5922 32.8177L41.5948 32.4374L43.2578 32.4489C43.3977 32.4499 43.5132 32.484 43.6044 32.5514C43.6955 32.6188 43.7634 32.7105 43.8081 32.8266C43.8527 32.9427 43.8746 33.0742 43.8736 33.2213ZM42.8999 33.2114C42.9004 33.1297 42.881 33.0599 42.8417 33.0021C42.8023 32.9443 42.7454 32.9003 42.671 32.8699C42.5967 32.8396 42.5073 32.824 42.4029 32.8233C42.2999 32.8226 42.2096 32.8369 42.132 32.8662C42.0544 32.8948 41.9941 32.9377 41.9511 32.9949C41.9073 33.0515 41.8852 33.1213 41.8846 33.2044C41.884 33.2903 41.9059 33.3622 41.9503 33.42C41.9946 33.4778 42.0557 33.5216 42.1337 33.5512C42.2109 33.5809 42.2988 33.5961 42.3976 33.5967C42.4977 33.5974 42.5855 33.5835 42.661 33.5549C42.7358 33.5256 42.7943 33.4823 42.8366 33.4251C42.8782 33.3671 42.8993 33.2959 42.8999 33.2114ZM43.8865 31.3463C43.8855 31.4848 43.8659 31.6036 43.8276 31.7028C43.7899 31.802 43.7397 31.8815 43.6768 31.9415C43.6138 32.0014 43.5443 32.0428 43.4682 32.0657L43.3864 31.7179C43.4185 31.7025 43.4502 31.68 43.4817 31.6503C43.5138 31.6207 43.5404 31.5808 43.5613 31.5305C43.583 31.4795 43.5941 31.4153 43.5946 31.3379C43.5954 31.2285 43.5694 31.1378 43.5166 31.0657C43.4645 30.9936 43.3781 30.9571 43.2574 30.9563L42.9474 30.9542L42.9473 30.9733C42.9869 30.9935 43.0275 31.0229 43.0692 31.0615C43.1108 31.0995 43.1456 31.1498 43.1736 31.2125C43.2016 31.2745 43.2153 31.3523 43.2146 31.4461C43.2137 31.5718 43.1835 31.6856 43.1238 31.7874C43.0635 31.8886 42.9741 31.9689 42.8558 32.0285C42.7368 32.0873 42.5882 32.1161 42.4099 32.1149C42.2302 32.1137 42.0788 32.0828 41.9556 32.0223C41.8318 31.9611 41.7382 31.8791 41.675 31.7764C41.6111 31.6737 41.5796 31.5595 41.5804 31.4337C41.5811 31.3379 41.598 31.2592 41.6311 31.1976C41.6634 31.1353 41.7025 31.0859 41.7482 31.0492C41.7932 31.0126 41.8357 30.9849 41.8756 30.966L41.8757 30.9447L41.6051 30.9428L41.6077 30.5625L43.2707 30.5739C43.4106 30.5749 43.5261 30.6091 43.6173 30.6765C43.7085 30.7439 43.7764 30.8356 43.821 30.9517C43.8657 31.0677 43.8875 31.1993 43.8865 31.3463ZM42.9128 31.3364C42.9134 31.2547 42.894 31.185 42.8546 31.1272C42.8152 31.0694 42.7583 31.0253 42.684 30.995C42.6096 30.9646 42.5202 30.9491 42.4158 30.9484C42.3128 30.9477 42.2225 30.962 42.1449 30.9913C42.0673 31.0198 42.007 31.0627 41.964 31.12C41.9203 31.1765 41.8981 31.2463 41.8976 31.3294C41.897 31.4153 41.9188 31.4872 41.9632 31.5451C42.0075 31.6029 42.0687 31.6466 42.1466 31.6763C42.2238 31.7059 42.3118 31.7211 42.4105 31.7218C42.5106 31.7225 42.5984 31.7085 42.6739 31.6799C42.7487 31.6506 42.8072 31.6073 42.8495 31.5501C42.8911 31.4921 42.9122 31.4209 42.9128 31.3364ZM43.2468 30.1785L41.6105 30.1672L41.6131 29.7816L43.2494 29.7929L43.2468 30.1785ZM41.3796 29.9717C41.3791 30.0328 41.3585 30.0852 41.3177 30.129C41.2763 30.1727 41.2267 30.1944 41.1692 30.194C41.111 30.1936 41.0618 30.1713 41.0216 30.127C40.9807 30.0826 40.9605 30.0299 40.9609 29.9689C40.9613 29.9071 40.9823 29.8547 41.0238 29.8116C41.0645 29.7679 41.1141 29.7462 41.1723 29.7466C41.2298 29.747 41.279 29.7693 41.3199 29.8137C41.3601 29.8573 41.38 29.91 41.3796 29.9717Z" fill="black"/>
<path d="M60.8203 62.1775L89.5504 62.3755" stroke="black" stroke-width="1.3"/>
<path d="M59.6706 62.1695L62.5556 60.4394L62.5315 63.9393L59.6706 62.1695Z" fill="black"/>
<path d="M90.6988 62.3834L87.8379 60.6137L87.8138 64.1136L90.6988 62.3834Z" fill="black"/>
<path d="M69.5022 66.9875L69.5172 64.8057L70.3354 64.8113C70.503 64.8125 70.6434 64.8447 70.7566 64.908C70.8705 64.9713 70.9562 65.0578 71.0137 65.1676C71.0719 65.2766 71.1005 65.4004 71.0995 65.5389C71.0986 65.6788 71.0682 65.8029 71.0085 65.9112C70.9488 66.0194 70.8613 66.1044 70.7458 66.1661C70.6303 66.2271 70.4884 66.257 70.3201 66.2559L69.7778 66.2521L69.7801 65.9272L70.269 65.9306C70.3671 65.9313 70.4474 65.9148 70.5102 65.8811C70.5729 65.8474 70.6194 65.8009 70.6496 65.7414C70.6806 65.682 70.6963 65.6136 70.6968 65.5361C70.6974 65.4587 70.6826 65.3904 70.6524 65.3313C70.623 65.2721 70.5768 65.226 70.5138 65.1929C70.4516 65.1591 70.3711 65.1418 70.2724 65.1412L69.9101 65.1387L69.8974 66.9902L69.5022 66.9875ZM71.8571 67.0367C71.7534 67.036 71.6601 67.0169 71.5773 66.9794C71.4951 66.9412 71.4302 66.8853 71.3824 66.8119C71.3353 66.7384 71.3122 66.648 71.3129 66.5408C71.3135 66.4484 71.3311 66.3722 71.3656 66.3121C71.4001 66.2519 71.447 66.204 71.5062 66.1682C71.5654 66.1323 71.6319 66.1055 71.7059 66.0875C71.7806 66.0688 71.8578 66.0555 71.9374 66.0475C72.0333 66.0383 72.1112 66.0299 72.1709 66.0225C72.2306 66.0144 72.274 66.0019 72.3011 65.9851C72.3289 65.9675 72.343 65.9403 72.3432 65.9033L72.3433 65.8969C72.3438 65.8167 72.3205 65.7544 72.2732 65.71C72.2259 65.6656 72.1575 65.6432 72.068 65.6425C71.9736 65.6419 71.8985 65.662 71.8428 65.7028C71.7879 65.7436 71.7506 65.792 71.731 65.848L71.3713 65.7943C71.4004 65.6951 71.4478 65.6123 71.5136 65.546C71.5794 65.479 71.6597 65.4291 71.7544 65.3964C71.8491 65.363 71.9536 65.3466 72.0679 65.3474C72.1468 65.348 72.2252 65.3578 72.3032 65.3768C72.3812 65.3958 72.4523 65.4268 72.5167 65.4699C72.581 65.5122 72.6325 65.5697 72.671 65.6424C72.7103 65.7152 72.7296 65.8058 72.7288 65.9145L72.7213 67.0096L72.3505 67.0071L72.3521 66.7823L72.3393 66.7822C72.3156 66.8275 72.2822 66.8699 72.2393 66.9094C72.1972 66.9482 72.144 66.9794 72.08 67.0031C72.0166 67.0261 71.9423 67.0373 71.8571 67.0367ZM71.9592 66.754C72.0366 66.7546 72.1038 66.7398 72.1608 66.7096C72.2179 66.6788 72.2618 66.6379 72.2927 66.5869C72.3243 66.536 72.3403 66.4804 72.3407 66.42L72.3421 66.2272C72.3299 66.237 72.3093 66.2461 72.2801 66.2545C72.2516 66.2628 72.2196 66.27 72.1841 66.2762C72.1485 66.2823 72.1133 66.2878 72.0785 66.2925C72.0436 66.2972 72.0134 66.3013 71.9878 66.3046C71.9302 66.3121 71.8787 66.3245 71.8331 66.3419C71.7875 66.3594 71.7515 66.384 71.725 66.4158C71.6985 66.4468 71.6851 66.4872 71.6847 66.5369C71.6842 66.608 71.7098 66.6618 71.7614 66.6983C71.813 66.7349 71.8789 66.7535 71.9592 66.754ZM73.5013 66.0562L73.4947 67.015L73.109 67.0123L73.1203 65.376L73.4889 65.3785L73.487 65.6566L73.5062 65.6567C73.5445 65.5654 73.605 65.493 73.6877 65.4396C73.7712 65.3862 73.874 65.3599 73.9962 65.3607C74.1091 65.3615 74.2073 65.3863 74.2908 65.4352C74.3749 65.4841 74.4398 65.5545 74.4853 65.6464C74.5316 65.7384 74.5539 65.8497 74.5523 65.9803L74.5451 67.0222L74.1594 67.0196L74.1662 66.0373C74.167 65.928 74.1391 65.8422 74.0828 65.78C74.0271 65.7178 73.9495 65.6864 73.8501 65.6857C73.7826 65.6853 73.7225 65.6998 73.6697 65.7292C73.6177 65.758 73.5766 65.8 73.5464 65.8552C73.5169 65.9103 73.5018 65.9774 73.5013 66.0562ZM74.9484 65.3886L75.334 65.3913L75.3221 67.1213C75.3213 67.2392 75.2983 67.3364 75.253 67.4128C75.2077 67.4892 75.1427 67.5459 75.0579 67.5829C74.9732 67.62 74.8704 67.6381 74.7497 67.6373C74.7355 67.6372 74.7223 67.6367 74.7103 67.6359C74.6982 67.6359 74.685 67.6354 74.6708 67.6346L74.673 67.3203C74.6837 67.3211 74.6932 67.3215 74.7018 67.3216C74.7103 67.3224 74.7192 67.3228 74.7284 67.3229C74.8023 67.3234 74.8553 67.3056 74.8875 67.2696C74.9197 67.2343 74.936 67.1822 74.9365 67.1133L74.9484 65.3886ZM75.1418 65.1577C75.08 65.1573 75.0272 65.1367 74.9834 65.0959C74.9404 65.0544 74.9191 65.0049 74.9195 64.9473C74.9199 64.8891 74.9419 64.8399 74.9855 64.7997C75.0298 64.7588 75.0829 64.7386 75.1446 64.739C75.2057 64.7394 75.2578 64.7604 75.3008 64.8019C75.3446 64.8427 75.3663 64.8922 75.3659 64.9504C75.3655 65.0079 75.3431 65.0572 75.2988 65.098C75.2552 65.1382 75.2028 65.1581 75.1418 65.1577ZM76.19 67.0666C76.0863 67.0659 75.993 67.0468 75.9102 67.0093C75.8281 66.9711 75.7631 66.9152 75.7153 66.8417C75.6682 66.7682 75.6451 66.6779 75.6458 66.5706C75.6464 66.4783 75.664 66.4021 75.6985 66.3419C75.733 66.2818 75.7799 66.2338 75.8391 66.198C75.8983 66.1622 75.9649 66.1353 76.0388 66.1174C76.1135 66.0987 76.1907 66.0854 76.2703 66.0774C76.3662 66.0681 76.4441 66.0598 76.5038 66.0524C76.5635 66.0443 76.6069 66.0318 76.634 66.0149C76.6618 65.9974 76.6759 65.9701 76.6761 65.9332L76.6762 65.9268C76.6767 65.8465 76.6534 65.7842 76.6061 65.7399C76.5588 65.6955 76.4904 65.673 76.4009 65.6724C76.3065 65.6718 76.2314 65.6918 76.1757 65.7327C76.1208 65.7735 76.0835 65.8219 76.0639 65.8778L75.7042 65.8242C75.7333 65.725 75.7807 65.6422 75.8465 65.5759C75.9124 65.5089 75.9926 65.459 76.0873 65.4263C76.182 65.3928 76.2865 65.3765 76.4008 65.3773C76.4797 65.3778 76.5581 65.3876 76.6361 65.4066C76.7141 65.4256 76.7852 65.4567 76.8496 65.4997C76.9139 65.5421 76.9654 65.5996 77.0039 65.6723C77.0432 65.745 77.0625 65.8357 77.0617 65.9444L77.0542 67.0395L76.6834 67.037L76.685 66.8122L76.6722 66.8121C76.6485 66.8574 76.6151 66.8998 76.5723 66.9392C76.5301 66.978 76.477 67.0093 76.4129 67.033C76.3495 67.056 76.2752 67.0672 76.19 67.0666ZM76.2921 66.7839C76.3695 66.7844 76.4367 66.7696 76.4937 66.7395C76.5508 66.7086 76.5947 66.6677 76.6256 66.6168C76.6572 66.5659 76.6732 66.5102 76.6736 66.4499L76.675 66.2571C76.6628 66.2669 76.6422 66.276 76.613 66.2843C76.5845 66.2927 76.5525 66.2999 76.517 66.306C76.4814 66.3122 76.4462 66.3176 76.4114 66.3224C76.3765 66.3271 76.3463 66.3311 76.3207 66.3345C76.2632 66.3419 76.2116 66.3544 76.166 66.3718C76.1204 66.3892 76.0844 66.4139 76.0579 66.4456C76.0314 66.4767 76.018 66.5171 76.0176 66.5668C76.0171 66.6378 76.0427 66.6916 76.0943 66.7282C76.1459 66.7648 76.2118 66.7834 76.2921 66.7839ZM77.8342 66.0861L77.8276 67.0448L77.4419 67.0422L77.4532 65.4059L77.8218 65.4084L77.8199 65.6865L77.8391 65.6866C77.8774 65.5952 77.9379 65.5228 78.0206 65.4694C78.1041 65.416 78.2069 65.3898 78.3291 65.3906C78.442 65.3914 78.5402 65.4162 78.6237 65.4651C78.7078 65.5139 78.7727 65.5844 78.8182 65.6763C78.8645 65.7682 78.8868 65.8795 78.8852 66.0102L78.878 67.0521L78.4923 67.0494L78.4991 66.0672C78.4999 65.9578 78.4721 65.8721 78.4157 65.8099C78.36 65.7477 78.2824 65.7163 78.183 65.7156C78.1155 65.7151 78.0554 65.7296 78.0027 65.7591C77.9506 65.7879 77.9095 65.8298 77.8793 65.885C77.8498 65.9402 77.8347 66.0072 77.8342 66.0861ZM79.9772 67.7074C79.8387 67.7065 79.7199 67.6868 79.6207 67.6485C79.5215 67.6109 79.442 67.5606 79.382 67.4977C79.3221 67.4348 79.2807 67.3652 79.2578 67.2891L79.6056 67.2073C79.621 67.2394 79.6435 67.2712 79.6732 67.3026C79.7028 67.3348 79.7427 67.3613 79.793 67.3823C79.844 67.4039 79.9082 67.415 79.9856 67.4156C80.095 67.4163 80.1857 67.3903 80.2578 67.3375C80.3299 67.2855 80.3664 67.1991 80.3672 67.0783L80.3693 66.7683L80.3502 66.7682C80.33 66.8078 80.3006 66.8485 80.262 66.8901C80.224 66.9317 80.1737 66.9666 80.111 66.9945C80.049 67.0225 79.9712 67.0362 79.8774 67.0355C79.7517 67.0347 79.6379 67.0044 79.5361 66.9448C79.4349 66.8844 79.3546 66.7951 79.295 66.6768C79.2362 66.5577 79.2074 66.4091 79.2086 66.2308C79.2098 66.0512 79.2407 65.8997 79.3012 65.7766C79.3624 65.6527 79.4444 65.5592 79.5471 65.4959C79.6498 65.432 79.764 65.4005 79.8898 65.4014C79.9856 65.402 80.0643 65.4189 80.1259 65.452C80.1882 65.4844 80.2376 65.5234 80.2743 65.5691C80.3109 65.6141 80.3386 65.6566 80.3575 65.6965L80.3788 65.6966L80.3807 65.426L80.761 65.4287L80.7496 67.0916C80.7486 67.2315 80.7144 67.3471 80.647 67.4382C80.5796 67.5294 80.4879 67.5973 80.3718 67.6419C80.2558 67.6866 80.1242 67.7084 79.9772 67.7074ZM79.9871 66.7337C80.0688 66.7343 80.1385 66.7149 80.1963 66.6755C80.2541 66.6361 80.2982 66.5793 80.3285 66.5049C80.3589 66.4305 80.3744 66.3412 80.3751 66.2368C80.3758 66.1338 80.3615 66.0435 80.3322 65.9659C80.3037 65.8882 80.2608 65.8279 80.2035 65.7849C80.147 65.7412 80.0772 65.7191 79.9941 65.7185C79.9082 65.7179 79.8363 65.7398 79.7784 65.7841C79.7206 65.8285 79.6769 65.8896 79.6472 65.9675C79.6176 66.0447 79.6024 66.1327 79.6017 66.2314C79.601 66.3316 79.615 66.4194 79.6436 66.4949C79.6729 66.5696 79.7162 66.6282 79.7734 66.6705C79.8314 66.7121 79.9026 66.7332 79.9871 66.7337Z" fill="black"/>
<path d="M103.127 60.4561L114.415 47.7527" stroke="black" stroke-width="1.3"/>
<path d="M101.969 61.6147L104.846 61.0512L102.564 58.7021L101.969 61.6147Z" fill="black"/>
<path d="M115.309 46.7725L112.432 47.336L114.714 49.6851L115.309 46.7725Z" fill="black"/>
<path d="M109.488 59.835L107.851 58.3928L108.107 58.0923L109.496 59.3155L110.12 58.5849L110.369 58.8039L109.488 59.835ZM111.075 58.0264C110.969 58.1511 110.851 58.2363 110.722 58.282C110.594 58.3266 110.461 58.3317 110.326 58.2972C110.189 58.2622 110.057 58.1882 109.928 58.075C109.802 57.9638 109.712 57.8418 109.658 57.7092C109.604 57.5756 109.588 57.4413 109.61 57.3063C109.631 57.1709 109.693 57.0438 109.794 56.925C109.86 56.8483 109.934 56.7868 110.017 56.7403C110.099 56.6929 110.188 56.6652 110.283 56.6575C110.379 56.6491 110.479 56.6644 110.583 56.7031C110.687 56.7414 110.793 56.808 110.9 56.9028L110.989 56.981L110.118 58.0007L109.923 57.8289L110.554 57.0902C110.498 57.042 110.438 57.0107 110.375 56.9964C110.311 56.9817 110.248 56.9846 110.187 57.0052C110.126 57.0253 110.071 57.0634 110.023 57.1195C109.972 57.1794 109.941 57.2448 109.931 57.3155C109.921 57.3857 109.928 57.4539 109.953 57.5202C109.977 57.5854 110.017 57.6424 110.071 57.6913L110.241 57.8413C110.313 57.9042 110.385 57.945 110.459 57.9636C110.533 57.9817 110.603 57.979 110.671 57.9554C110.738 57.9314 110.799 57.8875 110.853 57.8238C110.89 57.7811 110.917 57.7374 110.935 57.6925C110.952 57.6471 110.96 57.6014 110.958 57.5554C110.956 57.5094 110.944 57.4646 110.92 57.4211L111.184 57.1741C111.241 57.2543 111.275 57.3422 111.287 57.4377C111.299 57.5322 111.287 57.63 111.252 57.7308C111.217 57.8312 111.158 57.9298 111.075 58.0264ZM111.747 57.1911L110.11 55.7489L110.36 55.4557L110.973 55.9951L110.983 55.983C110.966 55.9416 110.953 55.8923 110.943 55.8352C110.932 55.7776 110.935 55.7148 110.951 55.6467C110.967 55.5781 111.006 55.5074 111.068 55.4345C111.15 55.3384 111.248 55.2731 111.363 55.2386C111.477 55.2031 111.601 55.2042 111.734 55.2419C111.867 55.2786 112.002 55.3571 112.138 55.4773C112.273 55.5961 112.368 55.7194 112.424 55.8473C112.48 55.9752 112.5 56.0996 112.484 56.2205C112.467 56.3413 112.418 56.4507 112.334 56.5484C112.273 56.6197 112.211 56.6685 112.147 56.6948C112.084 56.7211 112.023 56.734 111.966 56.7335C111.908 56.732 111.858 56.726 111.814 56.7153L111.8 56.7323L111.993 56.9028L111.747 57.1911ZM111.379 56.3628C111.458 56.4327 111.537 56.4826 111.616 56.5125C111.696 56.5419 111.771 56.5498 111.841 56.5361C111.912 56.5215 111.974 56.4831 112.027 56.421C112.082 56.3563 112.111 56.287 112.115 56.2132C112.117 56.1389 112.098 56.0644 112.058 55.9897C112.017 55.914 111.958 55.8423 111.881 55.7747C111.805 55.7076 111.728 55.6591 111.65 55.6291C111.572 55.5991 111.497 55.5912 111.426 55.6054C111.355 55.6195 111.292 55.6593 111.236 55.7246C111.183 55.7873 111.153 55.8548 111.148 55.9271C111.144 55.9995 111.161 56.0729 111.2 56.1472C111.24 56.2209 111.299 56.2928 111.379 56.3628ZM113.294 55.4313C113.227 55.5101 113.152 55.5689 113.071 55.6077C112.989 55.6454 112.905 55.6585 112.819 55.6468C112.733 55.6347 112.65 55.5931 112.569 55.5222C112.5 55.4612 112.454 55.3978 112.43 55.332C112.407 55.2661 112.401 55.1988 112.412 55.1301C112.423 55.0613 112.446 54.9928 112.48 54.9244C112.514 54.855 112.554 54.7873 112.599 54.7212C112.654 54.6417 112.698 54.5767 112.731 54.5262C112.763 54.4752 112.782 54.4338 112.786 54.402C112.791 54.3692 112.78 54.3406 112.752 54.3162L112.747 54.312C112.687 54.259 112.625 54.236 112.561 54.243C112.497 54.2501 112.436 54.2877 112.378 54.3557C112.316 54.4275 112.283 54.4981 112.278 54.5674C112.273 54.6363 112.286 54.6965 112.316 54.7482L112.043 54.9881C111.987 54.9008 111.955 54.8102 111.948 54.7164C111.939 54.6221 111.953 54.5281 111.99 54.4342C112.026 54.3398 112.081 54.2492 112.155 54.1623C112.206 54.1023 112.264 54.0488 112.329 54.0016C112.393 53.9544 112.462 53.9203 112.536 53.8993C112.61 53.8779 112.686 53.8763 112.766 53.8945C112.846 53.9121 112.927 53.9568 113.009 54.0287L113.831 54.7526L113.59 55.0344L113.421 54.8858L113.413 54.8956C113.432 54.9434 113.442 54.9967 113.444 55.0554C113.446 55.1131 113.436 55.1742 113.412 55.2387C113.389 55.3023 113.35 55.3665 113.294 55.4313ZM113.147 55.1678C113.197 55.109 113.229 55.0478 113.243 54.9844C113.256 54.9206 113.254 54.8602 113.235 54.8031C113.217 54.7456 113.186 54.6969 113.14 54.6569L112.996 54.5295C112.995 54.5452 112.989 54.567 112.976 54.5948C112.964 54.622 112.949 54.6512 112.931 54.6825C112.912 54.7137 112.894 54.7442 112.875 54.7739C112.856 54.8037 112.84 54.8294 112.826 54.8512C112.794 54.9001 112.77 54.9477 112.754 54.994C112.738 55.0403 112.733 55.084 112.74 55.1251C112.747 55.1657 112.769 55.2025 112.806 55.2353C112.859 55.2823 112.916 55.298 112.977 55.2825C113.038 55.2671 113.094 55.2288 113.147 55.1678ZM114.083 54.4577L112.855 53.3761L113.098 53.0918L113.302 53.2721L113.313 53.2591C113.262 53.174 113.24 53.087 113.249 52.9982C113.258 52.9083 113.292 52.8277 113.353 52.7564C113.367 52.7402 113.383 52.7228 113.402 52.7043C113.421 52.6847 113.437 52.6693 113.451 52.6582L113.717 52.8927C113.703 52.9013 113.682 52.9177 113.656 52.9419C113.629 52.9651 113.606 52.9891 113.584 53.0139C113.539 53.0674 113.509 53.1255 113.496 53.1884C113.482 53.2502 113.485 53.3109 113.504 53.3704C113.523 53.4299 113.559 53.4827 113.611 53.5287L114.333 54.1645L114.083 54.4577Z" fill="black"/>
</svg>
