<svg width="98" height="113" viewBox="0 0 98 113" fill="none" xmlns="http://www.w3.org/2000/svg">
<path d="M48.631 101.259C69.0659 101.259 85.6317 84.7313 85.6317 64.3439C85.6317 43.9565 69.0659 27.4292 48.631 27.4292C28.1961 27.4292 11.6304 43.9565 11.6304 64.3439C11.6304 84.7313 28.1961 101.259 48.631 101.259Z" stroke="#0F172B" stroke-width="4.76"/>
<path d="M48.6338 43.9366C49.9482 43.9366 51.0136 45.0022 51.0137 46.3165V63.6896C52.5405 64.5303 53.5752 66.1545 53.5752 68.0206C53.5752 70.7497 51.3628 72.962 48.6338 72.962C45.9047 72.962 43.6924 70.7497 43.6924 68.0206C43.6924 66.1545 44.7271 64.5303 46.2539 63.6896V46.3165C46.254 45.0022 47.3194 43.9366 48.6338 43.9366ZM48.6338 66.0792C47.5616 66.0792 46.6924 66.9484 46.6924 68.0206C46.6924 69.0928 47.5616 69.962 48.6338 69.962C49.706 69.962 50.5752 69.0928 50.5752 68.0206C50.5752 66.9484 49.706 66.0792 48.6338 66.0792Z" fill="#0F172B"/>
<path d="M56.5599 2.38H40.7025C39.2428 2.38 38.0596 3.56052 38.0596 5.01677V7.65353C38.0596 9.10978 39.2428 10.2903 40.7025 10.2903H56.5599C58.0195 10.2903 59.2028 9.10978 59.2028 7.65353V5.01677C59.2028 3.56052 58.0195 2.38 56.5599 2.38Z" stroke="#0F172B" stroke-width="4.76"/>
<path d="M53.9168 10.2903H43.3452V18.2006H53.9168V10.2903Z" stroke="#0F172B" stroke-width="4.76"/>
<path d="M48.6309 15.8203C59.7059 15.8203 69.916 19.5181 78.0928 25.7402L81.0996 22.456L79.2266 20.7431C78.4119 19.9973 78.3568 18.7317 79.1025 17.9169C79.8483 17.1025 81.113 17.0464 81.9277 17.7919L88.623 23.9199C89.4378 24.6656 89.4938 25.9312 88.748 26.746C88.0023 27.5608 86.7367 27.6168 85.9219 26.871L84.0498 25.1572L81.1787 28.2929C91.0526 37.1732 97.2616 50.033 97.2617 64.3437C97.2616 91.1474 75.4836 112.866 48.6309 112.866C21.7783 112.866 0.000165302 91.1473 0 64.3437C0.00022393 37.5401 21.7783 15.8205 48.6309 15.8203ZM48.6309 20.58C24.3967 20.5802 4.75999 40.1795 4.75977 64.3437C4.75993 88.508 24.3967 108.106 48.6309 108.106C72.8651 108.106 92.5018 88.5081 92.502 64.3437C92.5018 50.7856 86.3195 38.6658 76.6123 30.6376C76.5554 30.5957 76.4996 30.5507 76.4463 30.5019C76.4453 30.501 76.4444 30.4999 76.4434 30.499C68.8741 24.3019 59.1892 20.58 48.6309 20.58Z" fill="#0F172B"/>
</svg>
