<svg width="99" height="114" viewBox="0 0 99 114" fill="none" xmlns="http://www.w3.org/2000/svg">
<path d="M49.131 101.758C69.5659 101.758 86.1317 85.2312 86.1317 64.8438C86.1317 44.4563 69.5659 27.9291 49.131 27.9291C28.6961 27.9291 12.1304 44.4563 12.1304 64.8438C12.1304 85.2312 28.6961 101.758 49.131 101.758Z" stroke="black" stroke-width="5.75977"/>
<path d="M49.1338 41.9365C50.7242 41.9365 52.0136 43.226 52.0137 44.8164V64.5059C53.2617 65.4027 54.0752 66.8663 54.0752 68.5205C54.0752 71.2496 51.8628 73.4619 49.1338 73.4619C46.4047 73.4619 44.1924 71.2496 44.1924 68.5205C44.1924 66.8663 45.0058 65.4027 46.2539 64.5059V44.8164C46.254 43.226 47.5433 41.9365 49.1338 41.9365ZM49.1338 66.5791C48.0616 66.5791 47.1924 67.4483 47.1924 68.5205C47.1924 69.5927 48.0616 70.4619 49.1338 70.4619C50.206 70.4619 51.0752 69.5927 51.0752 68.5205C51.0752 67.4483 50.206 66.5791 49.1338 66.5791Z" fill="black"/>
<path d="M57.0599 2.87988H41.2025C39.7428 2.87988 38.5596 4.0604 38.5596 5.51665V8.15341C38.5596 9.60965 39.7428 10.7902 41.2025 10.7902H57.0599C58.5195 10.7902 59.7028 9.60965 59.7028 8.15341V5.51665C59.7028 4.0604 58.5195 2.87988 57.0599 2.87988Z" stroke="black" stroke-width="5.75977"/>
<path d="M54.4168 10.7902H43.8452V18.7005H54.4168V10.7902Z" stroke="black" stroke-width="5.75977"/>
<path fill-rule="evenodd" clip-rule="evenodd" d="M80.8643 15.7421C81.9829 14.5199 83.8804 14.436 85.1025 15.5546L91.7979 21.6825C93.02 22.8012 93.104 24.6986 91.9854 25.9208C90.8667 27.1429 88.9693 27.2268 87.7471 26.1083L86.6123 25.0702L82.8438 29.1854C92.3354 38.1228 98.2617 50.7906 98.2617 64.8436C98.2616 91.9245 76.2585 113.866 49.1309 113.866C22.0033 113.866 0.0001653 91.9244 0 64.8436C0.000139472 37.7628 22.0033 15.8204 49.1309 15.8202C60.0199 15.8202 70.0824 19.3576 78.2285 25.3417L82.1865 21.0184L81.0518 19.9804C79.8297 18.8618 79.7459 16.9643 80.8643 15.7421ZM49.1309 21.58C25.1717 21.5802 5.75991 40.9565 5.75977 64.8436C5.75993 88.7307 25.1717 108.106 49.1309 108.106C73.0902 108.106 92.5018 88.7308 92.502 64.8436C92.5018 40.9564 73.0902 21.58 49.1309 21.58Z" fill="black"/>
</svg>
